<?xml version="1.0" standalone="no"?><!DOCTYPE svg PUBLIC "-//W3C//DTD SVG 1.1//EN" "http://www.w3.org/Graphics/SVG/1.1/DTD/svg11.dtd"><svg t="1625308541471" class="icon" viewBox="0 0 1024 1024" version="1.1" xmlns="http://www.w3.org/2000/svg" p-id="1361" xmlns:xlink="http://www.w3.org/1999/xlink" width="200" height="200"><defs><style type="text/css"></style></defs><path d="M443.733333 546.133333c0-76.8 59.733333-138.666667 136.533334-138.666666V85.333333C330.666667 85.333333 128 292.266667 128 546.133333c0 104.533333 34.133333 202.666667 93.866667 279.466667l251.733333-196.266667c-19.2-21.333333-29.866667-51.2-29.866667-83.2z" fill="#25C2A0" p-id="1362"></path><path d="M708.266667 503.466667l87.466666-25.6c-27.733333-96-113.066667-166.4-217.6-166.4v96c61.866667 0 113.066667 40.533333 130.133334 96z" fill="#25C2A0" opacity=".6" p-id="1363"></path><path d="M883.2 456.533333l-172.8 51.2c4.266667 12.8 6.4 25.6 6.4 38.4 0 53.333333-29.866667 98.133333-72.533333 121.6l85.333333 162.133334c100.266667-53.333333 166.4-162.133333 166.4-285.866667 0-29.866667-4.266667-59.733333-12.8-87.466667z" fill="#25C2A0" p-id="1364"></path><path d="M644.266667 667.733333c-19.2 10.666667-40.533333 17.066667-64 17.066667-42.666667 0-83.2-21.333333-106.666667-53.333333l-202.666667 160c74.666667 89.6 185.6 147.2 311.466667 147.2 66.133333 0 130.133333-17.066667 185.6-44.8l-123.733333-226.133334z" fill="#25C2A0" opacity=".6" p-id="1365"></path></svg>