<?xml version="1.0" encoding="utf-8"?>
<!-- Generator: Adobe Illustrator 16.0.0, SVG Export Plug-In . SVG Version: 6.00 Build 0)  -->
<!DOCTYPE svg PUBLIC "-//W3C//DTD SVG 1.1//EN" "http://www.w3.org/Graphics/SVG/1.1/DTD/svg11.dtd">
<svg version="1.1" id="图层_1" xmlns="http://www.w3.org/2000/svg" xmlns:xlink="http://www.w3.org/1999/xlink" x="0px" y="0px"
	 width="960px" height="540px" viewBox="0 0 960 540" enable-background="new 0 0 960 540" xml:space="preserve">
<rect fill="none" width="960" height="540"/>
<rect fill="#FFFFFF" width="960" height="540"/>
<g id="组_47">
	<path id="矩形_13" fill="#FFC670" d="M688.481,385.335l38.184,38.184c12.888,12.887,12.888,33.781,0,46.669l0,0
		c-12.887,12.887-33.781,12.887-46.669,0l-38.184-38.184c-12.888-12.888-12.888-33.782,0-46.669l0,0
		C654.7,372.447,675.595,372.447,688.481,385.335z"/>
	<path id="矩形_15" fill="#FFC670" d="M221.633,91.284L324.87,194.521c10.154,10.153,10.154,26.616,0,36.77l0,0
		c-10.153,10.153-26.616,10.153-36.77,0L184.863,128.053c-10.154-10.154-10.154-26.616,0-36.77l0,0
		C195.017,81.13,211.479,81.13,221.633,91.284z"/>
	<path id="矩形_16" fill="#FFC670" d="M309.633,58.284L412.87,161.521c10.154,10.153,10.154,26.616,0,36.77l0,0
		c-10.153,10.153-26.616,10.153-36.77,0L272.863,95.053c-10.154-10.154-10.154-26.616,0-36.77l0,0
		C283.017,48.13,299.479,48.13,309.633,58.284z"/>
	<path id="矩形_14" fill="#FFC670" d="M689.844,291.881l57.275,57.275c7.615,7.615,7.615,19.962,0,27.577l0,0
		c-7.615,7.615-19.962,7.615-27.577,0l-57.275-57.275c-7.615-7.615-7.615-19.962,0-27.577l0,0
		C669.882,284.266,682.229,284.266,689.844,291.881z"/>
	<circle id="椭圆_1" fill="#FFC670" cx="480" cy="270" r="242"/>
</g>
<g id="组_72">
	<path fill="#3D3D63" d="M556,463h-98c-2.761,0-5-2.238-5-5s2.239-5,5-5h98c2.762,0,5,2.238,5,5S558.762,463,556,463z"/>
	<path fill="#3D3D63" d="M589,487H480c-2.761,0-5-2.238-5-5s2.239-5,5-5h109c2.762,0,5,2.238,5,5S591.762,487,589,487z"/>
	<path fill="#3D3D63" d="M403,463h-67c-2.761,0-5-2.238-5-5s2.239-5,5-5h67c2.761,0,5,2.238,5,5S405.761,463,403,463z"/>
	<path fill="#3D3D63" d="M701,487h-56c-2.762,0-5-2.238-5-5s2.238-5,5-5h56c2.762,0,5,2.238,5,5S703.762,487,701,487z"/>
	<path fill="#3D3D63" d="M439,487H283c-2.761,0-5-2.238-5-5s2.239-5,5-5h156c2.761,0,5,2.238,5,5S441.761,487,439,487z"/>
	<path fill="#3D3D63" d="M431,463c-1.32,0-2.6-0.53-3.54-1.47c-0.93-0.931-1.46-2.211-1.46-3.53c0-1.32,0.53-2.601,1.46-3.54
		c0.93-0.93,2.22-1.46,3.54-1.46c1.32,0,2.61,0.53,3.54,1.46c0.93,0.939,1.46,2.22,1.46,3.54c0,1.319-0.53,2.6-1.46,3.53
		C433.61,462.47,432.32,463,431,463z"/>
	<path fill="#3D3D63" d="M621,487c-1.311,0-2.601-0.53-3.54-1.47c-0.93-0.931-1.46-2.211-1.46-3.53c0-1.32,0.53-2.601,1.46-3.54
		c0.93-0.93,2.22-1.46,3.54-1.46c1.319,0,2.609,0.53,3.54,1.46c0.93,0.939,1.46,2.229,1.46,3.54c0,1.319-0.53,2.6-1.46,3.53
		C623.6,486.47,622.31,487,621,487z"/>
</g>
<g id="组_71">
	<g>
		
			<rect id="矩形_17_1_" x="787" y="274" transform="matrix(-0.7071 -0.7071 0.7071 -0.7071 1164.7457 1060.4535)" fill="#FFFFFF" width="30" height="30"/>
		<path fill="#FFC670" d="M802,312.213c-0.512,0-1.023-0.195-1.414-0.586l-21.213-21.213c-0.781-0.781-0.781-2.047,0-2.828
			l21.213-21.213c0.781-0.781,2.047-0.781,2.828,0l21.213,21.213c0.781,0.781,0.781,2.047,0,2.828l-21.213,21.213
			C803.023,312.018,802.512,312.213,802,312.213z M783.615,289L802,307.385L820.385,289L802,270.615L783.615,289z"/>
	</g>
	<g>
		
			<rect id="矩形_19_1_" x="221.1" y="200" transform="matrix(-0.7071 -0.7071 0.7071 -0.7071 243.0205 514.6614)" fill="#FFFFFF" width="14" height="14"/>
		<path fill="#FFC670" d="M228.1,218.899c-0.512,0-1.024-0.195-1.414-0.586l-9.899-9.899c-0.781-0.781-0.781-2.047,0-2.828
			l9.899-9.899c0.78-0.781,2.048-0.781,2.828,0l9.899,9.899c0.781,0.781,0.781,2.047,0,2.828l-9.899,9.899
			C229.124,218.704,228.612,218.899,228.1,218.899z M221.029,207l7.071,7.071l7.071-7.071l-7.071-7.071L221.029,207z"/>
	</g>
	<path fill="#FFFFFF" d="M691,328.9c-0.53,0-1.039-0.211-1.414-0.586l-9.899-9.9c-0.781-0.781-0.781-2.047,0-2.828l9.899-9.899
		c0.781-0.781,2.047-0.781,2.828,0l9.899,9.899c0.781,0.781,0.781,2.047,0,2.828l-9.899,9.9C692.039,328.689,691.53,328.9,691,328.9
		z M683.929,317l7.071,7.072l7.071-7.072L691,309.929L683.929,317z"/>
	<path fill="#FFFFFF" d="M544,67.9c-0.512,0-1.023-0.195-1.414-0.586l-9.899-9.899c-0.781-0.781-0.781-2.047,0-2.828l9.899-9.899
		c0.781-0.781,2.047-0.781,2.828,0l9.899,9.899c0.781,0.781,0.781,2.047,0,2.828l-9.899,9.899C545.023,67.705,544.512,67.9,544,67.9
		z M536.929,56L544,63.071L551.071,56L544,48.93L536.929,56z"/>
	<g id="椭圆_9" transform="translate(176 391)">
		<circle fill="#FFFFFF" cx="27.5" cy="27.5" r="27.5"/>
		<path fill="#FFC670" d="M27.5,55C12.336,55,0,42.663,0,27.5S12.336,0,27.5,0S55,12.337,55,27.5S42.664,55,27.5,55z M27.5,4
			C14.542,4,4,14.542,4,27.5S14.542,51,27.5,51S51,40.458,51,27.5S40.458,4,27.5,4z"/>
	</g>
	<g id="椭圆_10" transform="translate(194 100)">
		<circle fill="none" cx="13.5" cy="13.5" r="13.5"/>
		<path fill="#FFFFFF" d="M13.5,27C6.056,27,0,20.944,0,13.5S6.056,0,13.5,0S27,6.056,27,13.5S20.944,27,13.5,27z M13.5,4
			C8.262,4,4,8.262,4,13.5S8.262,23,13.5,23s9.5-4.262,9.5-9.5S18.738,4,13.5,4z"/>
	</g>
	<g id="椭圆_11" transform="translate(306 437)">
		<circle fill="none" cx="13.5" cy="13.5" r="13.5"/>
		<path fill="#FFFFFF" d="M13.5,27C6.056,27,0,20.944,0,13.5S6.056,0,13.5,0S27,6.056,27,13.5S20.944,27,13.5,27z M13.5,4
			C8.262,4,4,8.262,4,13.5S8.262,23,13.5,23s9.5-4.262,9.5-9.5S18.738,4,13.5,4z"/>
	</g>
	<g id="椭圆_12" transform="translate(438 89)">
		<circle fill="none" cx="9.5" cy="9.5" r="9.5"/>
		<path fill="#FFFFFF" d="M9.5,19C4.262,19,0,14.738,0,9.5S4.262,0,9.5,0S19,4.262,19,9.5S14.738,19,9.5,19z M9.5,4
			C6.467,4,4,6.467,4,9.5S6.467,15,9.5,15S15,12.533,15,9.5S12.533,4,9.5,4z"/>
	</g>
	<g id="椭圆_13" transform="translate(662 34)">
		<circle fill="#FFFFFF" cx="15" cy="15" r="15"/>
		<path fill="#FFC670" d="M15,30C6.729,30,0,23.271,0,15S6.729,0,15,0s15,6.729,15,15S23.271,30,15,30z M15,4C8.935,4,4,8.935,4,15
			s4.935,11,11,11s11-4.935,11-11S21.065,4,15,4z"/>
	</g>
	<g id="椭圆_15" transform="translate(359 28)">
		<circle fill="#FFFFFF" cx="9" cy="9" r="9"/>
		<path fill="#FFC670" d="M9,18c-4.962,0-9-4.038-9-9s4.038-9,9-9s9,4.038,9,9S13.962,18,9,18z M9,4C6.243,4,4,6.243,4,9
			s2.243,5,5,5s5-2.243,5-5S11.757,4,9,4z"/>
	</g>
	<g id="椭圆_14" transform="translate(692 185)">
		<circle fill="none" cx="15" cy="15" r="15"/>
		<path fill="#FFFFFF" d="M15,30C6.729,30,0,23.271,0,15S6.729,0,15,0s15,6.729,15,15S23.271,30,15,30z M15,4C8.935,4,4,8.935,4,15
			s4.935,11,11,11s11-4.935,11-11S21.065,4,15,4z"/>
	</g>
</g>
<g id="路径_1669" transform="translate(340 99)">
	<path fill="#FAE17D" d="M100,328H30c-11.028,0-20-8.972-20-20V30c0-11.028,8.972-20,20-20h70c11.028,0,20,8.972,20,20v278
		C120,319.028,111.028,328,100,328z"/>
	<path fill="#3D3D63" d="M30,20c-5.514,0-10,4.486-10,10v278c0,5.514,4.486,10,10,10h70c5.514,0,10-4.486,10-10V30
		c0-5.514-4.486-10-10-10H30 M30,0h70c16.568,0,30,13.432,30,30v278c0,16.568-13.432,30-30,30H30c-16.568,0-30-13.432-30-30V30
		C0,13.432,13.432,0,30,0z"/>
</g>
<g>
	<path id="联合_7_1_" fill="#FAE17D" d="M520,427c-11.046,0-20-8.954-20-20V168l55-67l55,67v239c0,11.046-8.954,20-20,20H520z"/>
	<path fill="#3D3D63" d="M590,437h-70c-16.542,0-30-13.458-30-30V168c0-2.314,0.803-4.557,2.271-6.345l55-67
		C549.17,92.341,552.007,91,555,91s5.83,1.341,7.729,3.655l55,67c1.468,1.788,2.271,4.031,2.271,6.345v239
		C620,423.542,606.542,437,590,437z M510,171.579V407c0,5.514,4.486,10,10,10h70c5.514,0,10-4.486,10-10V171.579l-45-54.818
		L510,171.579z"/>
</g>
<g id="组_73" transform="translate(0 -8)">
	<path fill="#3D3D63" d="M370.821,166H348.5c-4.418,0-8-3.582-8-8s3.582-8,8-8h22.321c4.418,0,8,3.582,8,8S375.239,166,370.821,166z
		"/>
	<path fill="#3D3D63" d="M370.821,193H348.5c-4.418,0-8-3.582-8-8s3.582-8,8-8h22.321c4.418,0,8,3.582,8,8S375.239,193,370.821,193z
		"/>
</g>
<g id="组_73-2" transform="translate(0 47)">
	<path fill="#3D3D63" d="M370.821,166H348.5c-4.418,0-8-3.582-8-8s3.582-8,8-8h22.321c4.418,0,8,3.582,8,8S375.239,166,370.821,166z
		"/>
	<path fill="#3D3D63" d="M370.821,193H348.5c-4.418,0-8-3.582-8-8s3.582-8,8-8h22.321c4.418,0,8,3.582,8,8S375.239,193,370.821,193z
		"/>
</g>
<g id="组_73-3" transform="translate(0 102)">
	<path fill="#3D3D63" d="M370.821,166H348.5c-4.418,0-8-3.582-8-8s3.582-8,8-8h22.321c4.418,0,8,3.582,8,8S375.239,166,370.821,166z
		"/>
	<path fill="#3D3D63" d="M370.821,193H348.5c-4.418,0-8-3.582-8-8s3.582-8,8-8h22.321c4.418,0,8,3.582,8,8S375.239,193,370.821,193z
		"/>
</g>
<g id="组_73-4" transform="translate(0 157)">
	<path fill="#3D3D63" d="M370.821,166H348.5c-4.418,0-8-3.582-8-8s3.582-8,8-8h22.321c4.418,0,8,3.582,8,8S375.239,166,370.821,166z
		"/>
	<path fill="#3D3D63" d="M370.821,193H348.5c-4.418,0-8-3.582-8-8s3.582-8,8-8h22.321c4.418,0,8,3.582,8,8S375.239,193,370.821,193z
		"/>
</g>
<g id="组_73-5" transform="translate(0 212)">
	<path fill="#3D3D63" d="M370.821,166H348.5c-4.418,0-8-3.582-8-8s3.582-8,8-8h22.321c4.418,0,8,3.582,8,8S375.239,166,370.821,166z
		"/>
	<path fill="#3D3D63" d="M370.821,193H348.5c-4.418,0-8-3.582-8-8s3.582-8,8-8h22.321c4.418,0,8,3.582,8,8S375.239,193,370.821,193z
		"/>
</g>
<g>
	<path id="多边形_3_1_" fill="#FFFFFF" d="M555,101l55,67H500L555,101z"/>
	<path fill="#3D3D63" d="M610,178H500c-3.867,0-7.387-2.229-9.04-5.725s-1.143-7.631,1.311-10.62l55-67
		C549.17,92.341,552.007,91,555,91s5.83,1.341,7.729,3.655l55,67c2.453,2.989,2.964,7.124,1.311,10.62S613.867,178,610,178z
		 M521.146,158h67.707L555,116.761L521.146,158z"/>
</g>
<path id="路径_107" fill="#3D3D63" d="M555,106l18,21h-36L555,106z"/>
<rect x="524.5" y="168.5" fill="#3D3D63" width="20" height="259"/>
<rect x="565.5" y="168.5" fill="#3D3D63" width="20" height="259"/>
<path id="路径_1656" opacity="0.86" fill="#FFB038" enable-background="new    " d="M450,128v280c0,4.971-4.029,9-9,9h-10V119h10
	C445.971,119,450,123.029,450,128z"/>
<g id="路径_1655" transform="translate(401 127.002)">
	<path fill="#FFFFFF" d="M19,33c-3.74,0-7.255-1.456-9.899-4.101C6.456,26.255,5,22.74,5,19c0-3.739,1.456-7.255,4.101-9.899
		C11.745,6.456,15.26,5,19,5c3.739,0,7.255,1.456,9.899,4.101C31.544,11.745,33,15.261,33,19c0,3.74-1.456,7.255-4.101,9.899
		C26.255,31.544,22.739,33,19,33z"/>
	<path fill="#3D3D63" d="M19,10c-4.963,0-9,4.038-9,9c0,4.963,4.037,9,9,9s9-4.037,9-9C28,14.038,23.963,10,19,10 M19,0
		c10.493,0,19,8.507,19,19c0,10.494-8.507,19-19,19S0,29.494,0,19C0,8.507,8.507,0,19,0z"/>
</g>
<g id="组_669" transform="translate(412 402) rotate(-90)">
	<rect x="-19" y="15" fill="#FFC670" width="38" height="8"/>
	<rect x="7" y="19" fill="#FFC670" width="30" height="8"/>
	<rect x="33" y="23" fill="#FFC670" width="22" height="8"/>
	<rect x="59" y="27" fill="#FFC670" width="14" height="8"/>
</g>
<g id="组_670" transform="translate(412 317) rotate(-90)">
	<rect x="-19" y="15" fill="#FFC670" width="38" height="8"/>
	<rect x="7" y="19" fill="#FFC670" width="30" height="8"/>
	<rect x="33" y="23" fill="#FFC670" width="22" height="8"/>
	<rect x="59" y="27" fill="#FFC670" width="14" height="8"/>
</g>
<g id="组_671" transform="translate(412 232) rotate(-90)">
	<rect x="-19" y="15" fill="#FFC670" width="38" height="8"/>
	<rect x="7" y="19" fill="#FFC670" width="30" height="8"/>
	<rect x="33" y="23" fill="#FFC670" width="22" height="8"/>
	<rect x="59" y="27" fill="#FFC670" width="14" height="8"/>
</g>
</svg>
