<?xml version="1.0" encoding="utf-8"?>
<!-- Generator: Adobe Illustrator 16.0.0, SVG Export Plug-In . SVG Version: 6.00 Build 0)  -->
<!DOCTYPE svg PUBLIC "-//W3C//DTD SVG 1.1//EN" "http://www.w3.org/Graphics/SVG/1.1/DTD/svg11.dtd">
<svg version="1.1" id="图层_1" xmlns="http://www.w3.org/2000/svg" xmlns:xlink="http://www.w3.org/1999/xlink" x="0px" y="0px"
	 width="960px" height="540px" viewBox="0 0 960 540" enable-background="new 0 0 960 540" xml:space="preserve">
<g id="组_766">
	<path id="路径_1806" opacity="0.2" fill="#69BAF9" enable-background="new    " d="M820,509.85c0-187.776-152.223-340-340-340
		c-187.777,0-340,152.223-340,340"/>
	<path id="路径_1807" opacity="0.5" fill="#69BAF9" enable-background="new    " d="M727.618,509.85
		c0-136.812-110.908-247.72-247.719-247.72c-136.812,0-247.72,110.908-247.72,247.72"/>
	<path id="路径_1808" opacity="0.7" fill="#69BAF9" enable-background="new    " d="M635.6,509.85
		c0.219-85.755-69.122-155.45-154.878-155.668c-85.755-0.219-155.45,69.122-155.669,154.878c0,0.263,0,0.526,0,0.79"/>
</g>
<g id="组_764" transform="translate(-72.295)">
	<path fill="#3D3D63" d="M807.295,510h-264c-2.761,0-5-2.238-5-5s2.239-5,5-5h264c2.762,0,5,2.238,5,5S810.057,510,807.295,510z"/>
	<path fill="#3D3D63" d="M886.295,510h-58c-2.762,0-5-2.238-5-5s2.238-5,5-5h58c2.762,0,5,2.238,5,5S889.057,510,886.295,510z"/>
	<path fill="#3D3D63" d="M491.295,510h-60c-2.761,0-5-2.238-5-5s2.239-5,5-5h60c2.761,0,5,2.238,5,5S494.056,510,491.295,510z"/>
	<path fill="#3D3D63" d="M396.295,510h-178c-2.761,0-5-2.238-5-5s2.239-5,5-5h178c2.761,0,5,2.238,5,5S399.056,510,396.295,510z"/>
	<ellipse id="椭圆_336" fill="#3D3D63" cx="514.295" cy="505" rx="5" ry="4"/>
</g>
<g id="矩形_1171" transform="translate(287.135 50)">
	<path fill="#9BE09F" d="M10,0h81.527c54.124,0,98,43.876,98,98l0,0v11.8c0,5.523-4.478,10-10,10H98c-54.124,0-98-43.876-98-98V10
		C0,4.477,4.477,0,10,0z"/>
	<path fill="#3D3D63" d="M179.527,119.8H98c-54.038,0-98-43.962-98-98V10C0,4.477,4.477,0,10,0h81.527c54.038,0,98,43.962,98,98
		v11.8C189.527,115.323,185.05,119.8,179.527,119.8z M20,20v1.8c0,43.009,34.991,78,78,78h71.527V98c0-43.009-34.991-78-78-78H20z"
		/>
</g>
<g id="联合_22" transform="translate(2629 3542)">
	<path fill="#A4DA86" d="M-2147.956-3243.001c-7.744,0-14.044-6.3-14.044-14.043v-115.434c0-0.508,0.027-1.01,0.079-1.505
		l0.056-0.523v-0.526V-3382c0-48.523,39.477-88,88-88h81.526l0.001,11.8c0,48.523-39.477,88-88,88h-43.574h-10v10v103.156
		C-2133.912-3249.301-2140.212-3243.001-2147.956-3243.001z"/>
	<path fill="#3D3D63" d="M-2147.956-3253.001c2.229,0,4.044-1.813,4.044-4.043V-3360.2c0-11.046,8.955-20,20-20h43.574
		c43.009,0,78-34.991,78-78v-1.8h-71.527c-43.01,0-78,34.991-78,78v6.968c0,0.702-0.061,1.857-0.135,2.554v115.434
		C-2152-3254.814-2150.186-3253.001-2147.956-3253.001 M-2147.956-3233.001c-13.278,0-24.044-10.765-24.044-24.043v-115.434
		c0-0.863,0.046-1.715,0.135-2.554V-3382c0-54.124,43.877-98,98-98h81.526c5.523,0,10.001,4.478,10.001,10.001v11.799
		c0,54.125-43.877,98-98,98h-43.574v103.156C-2123.912-3243.766-2134.677-3233.001-2147.956-3233.001z"/>
</g>
<g id="联合_23" transform="translate(2466 3730)">
	<path fill="#E39A6D" d="M-1882-3343c-15.205,0-28.98-7.784-36.85-20.822l-6.443-10.679l-9.022,8.611
		c-8.033,7.667-18.575,11.89-29.685,11.89c-14.019,0-27.196-6.866-35.251-18.367l-5.498-7.851l-8.076,5.159
		c-8.254,5.271-17.823,8.059-27.675,8.059c-8.779,0-17.443-2.245-25.055-6.492l-9.615-5.366l-4.418,10.087
		c-6.855,15.655-22.326,25.771-39.412,25.771c-23.71,0-43-19.289-43-43c0-23.71,19.29-43,43-43c5.42,0,10.698,0.992,15.689,2.949
		l10.256,4.021l3.014-10.596c6.259-22.006,26.631-37.375,49.541-37.375c19.805,0,37.531,11.051,46.264,28.842l4.22,8.599
		l8.771-3.846c5.441-2.385,11.243-3.595,17.245-3.595c15.205,0,28.98,7.784,36.85,20.823l6.444,10.679l9.021-8.612
		c8.033-7.667,18.575-11.89,29.685-11.89c23.71,0,43,19.29,43,43C-1839-3362.289-1858.29-3343-1882-3343z"/>
	<path fill="#3D3D63" d="M-1882-3353c18.196,0,33-14.804,33-33s-14.804-33-33-33c-8.525,0-16.616,3.24-22.779,9.123
		c-3.745,3.574-8.699,5.533-13.809,5.533c-0.881,0-1.766-0.059-2.65-0.176c-6.015-0.805-11.339-4.295-14.475-9.49
		c-6.042-10.013-16.617-15.99-28.287-15.99c-4.611,0-9.063,0.927-13.23,2.754c-2.609,1.144-5.334,1.687-8.019,1.687
		c-7.407,0-14.501-4.136-17.965-11.192c-7.038-14.34-21.325-23.249-37.286-23.249c-18.463,0-34.88,12.382-39.923,30.112
		c-1.543,5.424-5.304,9.945-10.357,12.449c-2.791,1.383-5.831,2.079-8.88,2.079c-2.472,0-4.949-0.458-7.301-1.38
		c-3.823-1.5-7.874-2.26-12.039-2.26c-18.196,0-33,14.804-33,33s14.804,33,33,33c13.114,0,24.989-7.766,30.252-19.783
		c2.263-5.165,6.6-9.135,11.943-10.934c2.077-0.698,4.23-1.043,6.377-1.043c3.377,0,6.736,0.855,9.746,2.535
		c6.126,3.418,13.104,5.225,20.182,5.225c7.939,0,15.648-2.243,22.291-6.486c3.33-2.127,7.061-3.146,10.75-3.146
		c6.317,0,12.52,2.988,16.398,8.529c6.186,8.831,16.302,14.104,27.061,14.104c8.525,0,16.616-3.24,22.78-9.123
		c3.744-3.574,8.699-5.533,13.808-5.533c0.881,0,1.766,0.059,2.65,0.177c6.015,0.804,11.339,4.294,14.475,9.489
		C-1904.245-3358.978-1893.67-3353-1882-3353 M-1882-3333c-19.267,0-36.133-10.281-45.411-25.656
		c-9.513,9.08-22.4,14.656-36.589,14.656c-17.975,0-33.859-8.947-43.442-22.631c-9.548,6.098-20.889,9.631-33.058,9.631
		c-10.863,0-21.07-2.817-29.928-7.76c-8.188,18.696-26.854,31.76-48.572,31.76c-29.271,0-53-23.729-53-53s23.729-53,53-53
		c6.825,0,13.349,1.29,19.34,3.64c7.33-25.77,31.041-44.64,59.16-44.64c24.255,0,45.229,14.039,55.24,34.437
		c6.508-2.853,13.699-4.437,21.26-4.437c19.267,0,36.133,10.282,45.411,25.656c9.513-9.08,22.399-14.656,36.589-14.656
		c29.271,0,53,23.729,53,53S-1852.729-3333-1882-3333z"/>
</g>
<g id="矩形_1165" transform="translate(230 328)">
	<path fill="#615364" d="M29,0h442c16.017,0,29,12.984,29,29l0,0c0,16.016-12.983,29-29,29H29C12.984,58,0,45.016,0,29l0,0
		C0,12.984,12.984,0,29,0z"/>
	<path fill="#3D3D63" d="M471,58H29C13.009,58,0,44.99,0,29S13.009,0,29,0h442c15.99,0,29,13.01,29,29S486.99,58,471,58z M29,20
		c-4.962,0-9,4.037-9,9s4.038,9,9,9h442c4.963,0,9-4.037,9-9s-4.037-9-9-9H29z"/>
</g>
<path fill="#615364" d="M319.5,356.667l307.667-1.166l42.333,33.833L670,444c0,20.987-17.014,38-38,38H328
	c-20.987,0-38-17.013-38-38l6.5-63.833L319.5,356.667z"/>
<path fill="#3D3D63" d="M632,482H328c-20.953,0-38-17.047-38-38v-58c0-11.028,8.972-20,20-20h340c11.028,0,20,8.972,20,20v58
	C670,464.953,652.953,482,632,482z M310,386v58c0,9.925,8.075,18,18,18h304c9.925,0,18-8.075,18-18v-58H310z"/>
<g id="矩形_1169" transform="translate(485 197)">
	<path fill="#9BE09F" d="M58.074,0h37C98.347,0,101,2.653,101,5.926l0,0C101,38,74.999,64,42.926,64h-37C2.653,64,0,61.347,0,58.074
		l0,0C0,26,26.001,0,58.074,0z"/>
	<path fill="#3D3D63" d="M47,64H0V54C0,24.224,24.225,0,54,0h47v10C101,39.776,76.775,64,47,64z M21.5,44H47
		c15.27,0,28.22-10.117,32.5-24H54C38.73,20,25.78,30.117,21.5,44z"/>
</g>
<g id="矩形_1170" transform="translate(376 184)">
	<path fill="#9BE09F" d="M5.926,0h37C74.999,0,101,26,101,58.074l0,0l0,0C101,61.347,98.347,64,95.074,64l0,0h-37
		C26.001,64,0,38,0,5.926l0,0C0,2.653,2.653,0,5.926,0z"/>
	<path fill="#3D3D63" d="M101,64H54C24.224,64,0,39.776,0,10V0h47c29.776,0,54,24.224,54,54V64z M21.5,20
		c4.28,13.883,17.23,24,32.5,24h25.5C75.22,30.117,62.269,20,47,20H21.5z"/>
</g>
<path id="路径_1953" fill="#76BA6D" d="M615.593,82c45.546-0.057,5.157,0,11.024,0l-0.178,7.407
	C624.458,127.813,590.5,162,550.407,162l-37.029-0.2C513.378,161.8,530.621,82.071,615.593,82z"/>
<path id="路径_1964" fill="#76BA6D" d="M318.337,70c-45.546-0.057-5.157,0-11.023,0l0.178,7.407
	C309.471,115.812,343.43,150,383.522,150l37.028-0.2C420.551,149.8,403.308,70.071,318.337,70z"/>
<g id="组_874" transform="translate(177 62)">
	<g id="组_781" transform="translate(479.97 0)">
		<path fill="#9BE09F" d="M32.692,20.346H0c-2.209,0-4-1.791-4-4s1.791-4,4-4h32.692c2.209,0,4,1.791,4,4
			S34.901,20.346,32.692,20.346z"/>
		<path fill="#9BE09F" d="M16.346,36.692c-2.209,0-4-1.791-4-4V0c0-2.209,1.791-4,4-4s4,1.791,4,4v32.692
			C20.346,34.901,18.555,36.692,16.346,36.692z"/>
	</g>
	<g id="组_782" transform="translate(447.901 127.696)">
		<g id="组_775" transform="translate(0 0)">
			<g id="组_770" transform="translate(20.007)">
				<path fill="#9BE09F" d="M0,44.014c-2.209,0-4-1.791-4-4v-7.322c0-2.209,1.791-4,4-4s4,1.791,4,4v7.322
					C4,42.223,2.209,44.014,0,44.014z"/>
				<path fill="#9BE09F" d="M0,11.322c-2.209,0-4-1.791-4-4V0c0-2.209,1.791-4,4-4s4,1.791,4,4v7.322C4,9.531,2.209,11.322,0,11.322
					z"/>
			</g>
			<g id="组_771" transform="translate(40.014 20.007) rotate(90)">
				<path fill="#9BE09F" d="M4,32.692v7.321c0,2.209-1.791,4-4,4s-4-1.791-4-4v-7.321c0-2.209,1.791-4,4-4S4,30.483,4,32.692z"/>
				<path fill="#9BE09F" d="M4,0v7.322c0,2.209-1.791,4-4,4s-4-1.791-4-4V0c0-2.209,1.791-4,4-4S4-2.209,4,0z"/>
			</g>
			<g id="组_772" transform="translate(34.154 5.86) rotate(45)">
				<path fill="#9BE09F" d="M2.828,42.842C2.105,43.566,1.104,44.014,0,44.014c-2.209,0-4-1.791-4-4l0-7.322
					c0.001-2.209,1.792-4.001,4-3.999c2.209,0,4,1.791,4,4l0,7.322C3.999,41.119,3.552,42.119,2.828,42.842z"/>
				<path fill="#9BE09F" d="M2.829,10.15c-0.724,0.724-1.724,1.171-2.828,1.171c-2.209,0-4-1.791-4-4L-4,0
					C-4.001-2.208-2.209-3.999,0-4c2.209,0,4,1.791,4,4l0,7.321C4,8.426,3.552,9.426,2.829,10.15z"/>
			</g>
			<g id="组_773" transform="translate(34.154 34.154) rotate(135)">
				<path fill="#9BE09F" d="M2.829-2.828c0.724,0.724,1.172,1.724,1.172,2.829L4,7.323c0,2.209-1.791,4-4.001,3.999
					c-2.211-0.002-4-1.793-4-4.001L-4-0.001C-4-2.209-2.209-4,0.001-4C1.105-3.999,2.105-3.552,2.829-2.828z"/>
				<path fill="#9BE09F" d="M2.828,29.863C3.552,30.587,4,31.588,4,32.691v7.322c0,2.21-1.791,4-4,4c-2.208,0.001-4-1.792-4-4
					v-7.322c0-2.21,1.791-4,4-4C1.104,28.691,2.105,29.14,2.828,29.863z"/>
			</g>
		</g>
	</g>
	<g id="路径_1815" transform="translate(571.976 206.772)">
		<path fill="none" d="M16.95,0C26.311,0,33.9,7.589,33.9,16.951c0,9.36-7.589,16.949-16.95,16.949S0,26.311,0,16.951
			C0,7.589,7.588,0,16.95,0z"/>
		<path fill="#9BE09F" d="M16.95,7.999c-4.935,0-8.95,4.016-8.95,8.95s4.016,8.95,8.95,8.95s8.949-4.016,8.949-8.95
			S21.884,7.999,16.95,7.999 M16.95,0c9.361,0,16.949,7.589,16.949,16.95S26.311,33.9,16.95,33.9S0,26.31,0,16.95S7.588,0,16.95,0z"
			/>
	</g>
	<g id="路径_1816" transform="translate(481.167 368.293)">
		<path fill="none" d="M14.127,0c7.802,0,14.127,6.325,14.127,14.127s-6.325,14.127-14.127,14.127S0,21.929,0,14.127
			S6.325,0,14.127,0z"/>
		<path fill="#9BE09F" d="M14.127,8C10.749,8,8,10.749,8,14.127c0,3.379,2.749,6.127,6.127,6.127c3.379,0,6.127-2.748,6.127-6.127
			C20.254,10.749,17.506,8,14.127,8 M14.127,0c7.802,0,14.127,6.325,14.127,14.127s-6.325,14.127-14.127,14.127S0,21.929,0,14.127
			S6.325,0,14.127,0z"/>
	</g>
	<g id="路径_1817" transform="translate(43.926 93.692)">
		<path fill="none" d="M20.356,0c11.242,0,20.356,9.114,20.356,20.356c0,11.243-9.114,20.356-20.356,20.356
			C9.114,40.712,0,31.599,0,20.356C0,9.114,9.114,0,20.356,0z"/>
		<path fill="#9BE09F" d="M20.356,8C13.543,8,8,13.543,8,20.356s5.543,12.356,12.356,12.356s12.356-5.543,12.356-12.356
			S27.169,8,20.356,8 M20.356,0c11.242,0,20.356,9.114,20.356,20.356s-9.114,20.356-20.356,20.356S0,31.598,0,20.356
			S9.114,0,20.356,0z"/>
	</g>
	<g id="组_783" transform="translate(0 322.474)">
		<path fill="#9BE09F" d="M24.703,17.301H0c-2.209,0-4-1.791-4-4s1.791-4,4-4h24.703c2.209,0,4,1.791,4,4
			S26.912,17.301,24.703,17.301z"/>
		<path fill="#9BE09F" d="M12.352,28.703c-2.209,0-4-1.791-4-4V0.001c0-2.209,1.791-4,4-4s4,1.791,4,4v24.702
			C16.352,26.912,14.561,28.703,12.352,28.703z"/>
	</g>
</g>
<path id="路径_1969" fill="#524255" d="M310,442v2c0,9.941,8.059,18,18,18h304c9.941,0,18-8.059,18-18v-2H310z"/>
</svg>
