<?xml version="1.0" encoding="utf-8"?>
<!-- Generator: Adobe Illustrator 16.0.0, SVG Export Plug-In . SVG Version: 6.00 Build 0)  -->
<!DOCTYPE svg PUBLIC "-//W3C//DTD SVG 1.1//EN" "http://www.w3.org/Graphics/SVG/1.1/DTD/svg11.dtd">
<svg version="1.1" id="图层_1" xmlns="http://www.w3.org/2000/svg" xmlns:xlink="http://www.w3.org/1999/xlink" x="0px" y="0px"
	 width="960px" height="540px" viewBox="0 0 960 540" enable-background="new 0 0 960 540" xml:space="preserve">
<g id="组_766">
	<path id="路径_1806" opacity="0.2" fill="#69BAF9" enable-background="new    " d="M820,509.85c0-187.777-152.223-340-340-340
		c-187.776,0-340,152.223-340,340"/>
	<path id="路径_1807" opacity="0.5" fill="#69BAF9" enable-background="new    " d="M727.618,509.85
		c0-136.813-110.907-247.721-247.719-247.721s-247.72,110.908-247.72,247.721"/>
	<path id="路径_1808" opacity="0.7" fill="#69BAF9" enable-background="new    " d="M635.6,509.85
		c0.218-85.755-69.123-155.45-154.878-155.669c-85.756-0.219-155.451,69.123-155.669,154.878c-0.001,0.264-0.001,0.527,0,0.791"/>
</g>
<g id="组_764" transform="translate(-72.295)">
	<path fill="#3D3D63" d="M807.295,510h-264c-2.761,0-5-2.238-5-5s2.239-5,5-5h264c2.762,0,5,2.238,5,5S810.056,510,807.295,510z"/>
	<path fill="#3D3D63" d="M886.295,510h-58c-2.762,0-5-2.238-5-5s2.238-5,5-5h58c2.762,0,5,2.238,5,5S889.056,510,886.295,510z"/>
	<path fill="#3D3D63" d="M491.295,510h-60c-2.761,0-5-2.238-5-5s2.239-5,5-5h60c2.761,0,5,2.238,5,5S494.056,510,491.295,510z"/>
	<path fill="#3D3D63" d="M396.295,510h-178c-2.761,0-5-2.238-5-5s2.239-5,5-5h178c2.761,0,5,2.238,5,5S399.056,510,396.295,510z"/>
	<ellipse id="椭圆_336" fill="#3D3D63" cx="514.295" cy="505" rx="5" ry="4"/>
</g>
<circle fill="#E39A6D" cx="480" cy="280" r="200"/>
<path fill="#3D3D63" d="M480,480c-110.28,0-200-89.72-200-200s89.72-200,200-200s200,89.72,200,200S590.28,480,480,480z M480,106
	c-95.944,0-174,78.056-174,174c0,95.944,78.056,174,174,174c95.944,0,174-78.056,174-174C654,184.056,575.944,106,480,106z"/>
<circle id="椭圆_492" fill="#FBD45C" cx="399.5" cy="371.5" r="23.5"/>
<circle id="椭圆_496" fill="#FBD45C" cx="585.5" cy="204.5" r="18.5"/>
<circle id="椭圆_493" fill="#70626F" cx="376.5" cy="239.5" r="16.5"/>
<circle id="椭圆_494" fill="#70626F" cx="444.5" cy="361.5" r="16.5"/>
<path id="路径_2279" fill="#C57D51" d="M654.007,280c0.089,96.009-77.668,173.911-173.676,174c-0.11,0.001-0.221,0.001-0.331,0
	C618.78,411.175,654.007,280,654.007,280z"/>
<path fill="#3D3D63" d="M353.798,445.222c-49.538,0.001-84.177-15.422-98.032-43.859c-13.5-27.711-4.853-64.022,24.348-102.247
	c4.358-5.707,12.518-6.799,18.222-2.438c5.706,4.358,6.797,12.517,2.439,18.222c-22.921,30.004-30.604,56.666-21.636,75.076
	c9.751,20.014,39.867,30.618,82.622,29.104c47.055-1.672,103.358-17.397,158.535-44.28c55.179-26.884,102.263-61.528,132.581-97.554
	c27.548-32.733,37.755-62.986,28.004-83c-7.938-16.292-29.374-26.505-60.36-28.76c-7.161-0.521-12.543-6.749-12.022-13.909
	c0.521-7.161,6.75-12.539,13.909-12.022c40.614,2.956,69.682,18.334,81.847,43.304c14.669,30.108,3.487,69.575-31.484,111.129
	c-32.606,38.745-82.712,75.745-141.085,104.186c-58.374,28.44-118.393,45.093-169.001,46.891
	C359.672,445.17,356.707,445.222,353.798,445.222z"/>
<circle fill="#70626F" cx="595" cy="342" r="45"/>
<path fill="#3D3D63" d="M595,387c-24.813,0-45-20.187-45-45s20.187-45,45-45s45,20.187,45,45S619.813,387,595,387z M595,317
	c-13.785,0-25,11.215-25,25s11.215,25,25,25s25-11.215,25-25S608.785,317,595,317z"/>
<circle id="椭圆_495" fill="#70626F" cx="567" cy="408" r="10"/>
<path fill="#736574" d="M527,265c-5.672,0-11.172-1.109-16.347-3.298c-5-2.115-9.492-5.145-13.352-9.004
	c-3.858-3.858-6.888-8.351-9.003-13.352c-2.187-5.171-3.297-10.667-3.298-16.335v-0.016v-4.896l-4.896-0.103
	c-4.857-0.102-9.408-2.071-12.815-5.546c-3.411-3.479-5.29-8.078-5.29-12.951c0-4.941,1.925-9.587,5.419-13.081
	c3.494-3.495,8.14-5.419,13.081-5.419c2.92,0,5.71,0.658,8.295,1.958c2.469,1.241,4.67,3.059,6.364,5.256l2.99,3.876l3.938-2.907
	c3.533-2.607,7.425-4.633,11.569-6.021C517.943,181.727,522.431,181,527,181c5.673,0,11.172,1.109,16.347,3.299
	c5.001,2.115,9.493,5.144,13.352,9.003c3.859,3.858,6.888,8.351,9.003,13.352c2.189,5.175,3.299,10.675,3.299,16.348
	c0,5.672-1.109,11.172-3.299,16.346c-2.115,5.001-5.144,9.493-9.003,13.352c-3.858,3.859-8.351,6.889-13.352,9.004
	C538.173,263.89,532.673,265,527,265z"/>
<path fill="#3D3D63" d="M527,260c20.402,0,37-16.598,37-36.999C564,202.598,547.402,186,527,186c-7.969,0-15.557,2.491-21.942,7.205
	c-1.786,1.318-3.867,1.955-5.932,1.955c-2.997,0-5.958-1.343-7.926-3.893c-2.582-3.348-6.481-5.268-10.7-5.268
	c-7.443,0-13.5,6.056-13.5,13.5c0,7.29,5.928,13.348,13.214,13.503c5.438,0.116,9.787,4.558,9.787,9.998
	C490.001,243.402,506.598,260,527,260 M527,270c-25.957,0-46.999-21.043-46.999-46.999c0-0.002,0-0.004,0-0.005
	C467.253,222.729,457,212.311,457,199.5c0-12.978,10.521-23.5,23.5-23.5c7.58,0,14.321,3.589,18.619,9.16
	c7.8-5.758,17.442-9.16,27.881-9.16c25.958,0,47,21.043,47,47.001C574,248.957,552.958,270,527,270z"/>
<g id="组_1055" transform="translate(177 80)">
	<g id="组_781" transform="translate(479.97 0)">
		<path fill="#1663ED" d="M32.692,20.346H0c-2.209,0-4-1.791-4-4s1.791-4,4-4h32.691c2.209,0,4,1.791,4,4
			S34.901,20.346,32.692,20.346z"/>
		<path fill="#1663ED" d="M16.346,36.692c-2.209,0-4-1.791-4-4V0c0-2.209,1.791-4,4-4s4,1.791,4,4v32.692
			C20.346,34.901,18.555,36.692,16.346,36.692z"/>
	</g>
	<g id="组_782" transform="translate(447.901 127.696)">
		<g id="组_775" transform="translate(0 0)">
			<g id="组_770" transform="translate(20.007)">
				<path fill="#1663ED" d="M0,44.014c-2.209,0-4-1.791-4-4v-7.321c0-2.209,1.791-4,4-4s4,1.791,4,4v7.321
					C4,42.223,2.209,44.014,0,44.014z"/>
				<path fill="#1663ED" d="M0,11.322c-2.209,0-4-1.791-4-4V0c0-2.209,1.791-4,4-4s4,1.791,4,4v7.322C4,9.531,2.209,11.322,0,11.322
					z"/>
			</g>
			<g id="组_771" transform="translate(40.014 20.007) rotate(90)">
				<path fill="#1663ED" d="M4,32.692v7.322c0,2.209-1.791,4-4,4s-4-1.791-4-4v-7.322c0-2.209,1.791-4,4-4S4,30.483,4,32.692z"/>
				<path fill="#1663ED" d="M4,0v7.321c0,2.209-1.791,4-4,4s-4-1.791-4-4V0c0-2.209,1.791-4,4-4S4-2.209,4,0z"/>
			</g>
			<g id="组_772" transform="translate(34.154 5.86) rotate(45)">
				<path fill="#1663ED" d="M2.829,42.842c-0.724,0.724-1.724,1.171-2.828,1.171c-2.209,0-4-1.791-4.001-3.999L-4,32.693
					c0-2.21,1.791-4,4-4.001c2.209,0,4,1.791,4.001,3.999l0.001,7.322C4.001,41.118,3.553,42.118,2.829,42.842z"/>
				<path fill="#1663ED" d="M2.828,10.15c-0.724,0.724-1.724,1.172-2.829,1.172c-2.209,0-4-1.791-3.999-4.001L-3.999,0
					c0.001-2.21,1.793-4,4.001-4C2.21-4,4.001-2.209,4.001,0L4,7.322C3.999,8.427,3.552,9.426,2.828,10.15z"/>
			</g>
			<g id="组_773" transform="translate(34.154 34.154) rotate(135)">
				<path fill="#1663ED" d="M2.828-2.829C3.552-2.105,4-1.105,4-0.001v7.322c0,2.21-1.791,4-4,4c-2.208,0.001-4-1.792-4-4V0
					c0-2.21,1.791-4,4-4C1.104-4.001,2.105-3.553,2.828-2.829z"/>
				<path fill="#1663ED" d="M2.828,29.864C3.553,30.588,4,31.588,4,32.693L4,40.015c0,2.209-1.791,4-4.001,3.999
					c-2.21-0.001-4-1.793-4-4.001L-4,32.691c0-2.209,1.791-4,4.001-3.999C1.105,28.693,2.105,29.14,2.828,29.864z"/>
			</g>
		</g>
	</g>
	<g id="路径_1815" transform="translate(571.976 206.772)">
		<path fill="none" d="M16.95,0c9.361,0,16.95,7.589,16.95,16.95s-7.589,16.95-16.95,16.95S0,26.312,0,16.95S7.589,0,16.95,0z"/>
		<path fill="#1663ED" d="M16.949,8C12.015,8,8,12.015,8,16.95c0,4.935,4.015,8.949,8.949,8.949c4.936,0,8.95-4.015,8.95-8.949
			C25.9,12.015,21.885,8,16.949,8 M16.949,0C26.311,0,33.9,7.589,33.9,16.95c0,9.36-7.589,16.949-16.95,16.949
			C7.589,33.9,0,26.311,0,16.95C0,7.589,7.589,0,16.949,0z"/>
	</g>
	<g id="路径_1816" transform="translate(481.167 368.293)">
		<path fill="none" d="M14.128,0.001c7.802,0,14.127,6.324,14.127,14.127c0,7.802-6.325,14.127-14.127,14.127
			c-7.803,0-14.127-6.325-14.127-14.127C0.001,6.325,6.325,0.001,14.128,0.001z"/>
		<path fill="#1663ED" d="M14.128,8.001c-3.379,0-6.127,2.748-6.127,6.127c0,3.378,2.748,6.127,6.127,6.127
			c3.378,0,6.127-2.749,6.127-6.127C20.255,10.749,17.505,8.001,14.128,8.001 M14.128,0.001c7.802,0,14.127,6.324,14.127,14.127
			c0,7.802-6.325,14.127-14.127,14.127c-7.803,0-14.127-6.325-14.127-14.127C0.001,6.325,6.325,0.001,14.128,0.001z"/>
	</g>
	<g id="路径_1817" transform="translate(43.926 93.692)">
		<path fill="none" d="M20.356,0c11.242,0,20.356,9.113,20.356,20.355c0,11.243-9.114,20.356-20.356,20.356
			S-0.001,31.599-0.001,20.356C-0.001,9.113,9.114,0,20.356,0z"/>
		<path fill="#1663ED" d="M20.356,8C13.542,8,7.999,13.543,7.999,20.356c0,6.813,5.543,12.356,12.356,12.356
			c6.813,0,12.355-5.543,12.355-12.356C32.711,13.543,27.168,8,20.356,8 M20.356,0c11.242,0,20.355,9.113,20.355,20.355
			s-9.113,20.356-20.355,20.356S-0.001,31.598-0.001,20.356S9.114,0,20.356,0z"/>
	</g>
	<g id="组_783" transform="translate(0 322.474)">
		<path fill="#1663ED" d="M24.703,17.302H0c-2.209,0-4-1.791-4-4s1.791-4,4-4h24.703c2.209,0,4,1.791,4,4
			S26.912,17.302,24.703,17.302z"/>
		<path fill="#1663ED" d="M12.352,28.704c-2.209,0-4-1.791-4-4V0c0-2.209,1.791-4,4-4s4,1.791,4,4v24.703
			C16.352,26.913,14.561,28.704,12.352,28.704z"/>
	</g>
</g>
</svg>
